# xmcd
#
# Track frame offsets: 
#        150
#        18311
#        46936
#        61610
#        80585
#        100542
#        123047
#        141162
#        164115
#        184103
#        209240
#        230750
#        244754
#        264664
#        287892
#
# Disc length: 4055 seconds
#
# Revision: 0
# Processed by: cddbd v1.5.2PL0 Copyright (c) Steve Scherf et al.
# Submitted via: ExactAudioCopy v1.0b3
#
DISCID=d80fd50f
DTITLE=Palabra de Vida - Anclado Estoy
DYEAR=1900
DGENRE=Himnos
TTITLE0=El triunfo es de nuestro Señor
TTITLE1=Anclado estoy
TTITLE2=Yo canto porque...
TTITLE3=La gran división
TTITLE4=Su canción preferida
TTITLE5=El Calvario se manifestó
TTITLE6=Campeón de amor
TTITLE7=Serviré a Jesús
TTITLE8=Ya no recuerdo
TTITLE9=Seguiré a Jesús
TTITLE10=Levántate
TTITLE11=Amén
TTITLE12=Llámale
TTITLE13=Con Cristo en la cruz estoy
TTITLE14=Somos su corazón
EXTD=
EXTT0=
EXTT1=
EXTT2=
EXTT3=
EXTT4=
EXTT5=
EXTT6=
EXTT7=
EXTT8=
EXTT9=
EXTT10=
EXTT11=
EXTT12=
EXTT13=
EXTT14=
PLAYORDER=
